<mxfile host="app.diagrams.net" modified="2023-05-31T02:57:45.571Z" agent="Mozilla/5.0 (Windows NT 10.0; Win64; x64) AppleWebKit/537.36 (KHTML, like Gecko) Chrome/113.0.0.0 Safari/537.36" etag="DeEf2cIT_h8DOtJOZBpa" version="21.3.6" type="device">
  <diagram name="Page-1" id="BMxEbLs8fuNhibiLyES2">
    <mxGraphModel dx="3350" dy="1302" grid="1" gridSize="10" guides="1" tooltips="1" connect="1" arrows="1" fold="1" page="0" pageScale="1" pageWidth="850" pageHeight="1100" math="0" shadow="0">
      <root>
        <mxCell id="0" />
        <mxCell id="1" parent="0" />
        <mxCell id="Nfgtw0JPdmUJKJwWnRwI-1" value="members" style="rounded=0;whiteSpace=wrap;html=1;" vertex="1" parent="1">
          <mxGeometry x="140" y="10" width="120" height="60" as="geometry" />
        </mxCell>
        <mxCell id="Nfgtw0JPdmUJKJwWnRwI-2" style="edgeStyle=orthogonalEdgeStyle;rounded=0;orthogonalLoop=1;jettySize=auto;html=1;exitX=0.5;exitY=1;exitDx=0;exitDy=0;" edge="1" parent="1" source="Nfgtw0JPdmUJKJwWnRwI-1" target="Nfgtw0JPdmUJKJwWnRwI-1">
          <mxGeometry relative="1" as="geometry" />
        </mxCell>
        <mxCell id="Nfgtw0JPdmUJKJwWnRwI-4" value="" style="endArrow=none;html=1;rounded=0;" edge="1" parent="1">
          <mxGeometry width="50" height="50" relative="1" as="geometry">
            <mxPoint x="200" y="10" as="sourcePoint" />
            <mxPoint x="200" y="-50" as="targetPoint" />
          </mxGeometry>
        </mxCell>
        <mxCell id="Nfgtw0JPdmUJKJwWnRwI-5" value="" style="endArrow=none;html=1;rounded=0;" edge="1" parent="1">
          <mxGeometry width="50" height="50" relative="1" as="geometry">
            <mxPoint x="260" y="10" as="sourcePoint" />
            <mxPoint x="310" y="-40" as="targetPoint" />
          </mxGeometry>
        </mxCell>
        <mxCell id="Nfgtw0JPdmUJKJwWnRwI-8" value="" style="endArrow=none;html=1;rounded=0;" edge="1" parent="1">
          <mxGeometry width="50" height="50" relative="1" as="geometry">
            <mxPoint x="260" y="70" as="sourcePoint" />
            <mxPoint x="320" y="90" as="targetPoint" />
          </mxGeometry>
        </mxCell>
        <mxCell id="Nfgtw0JPdmUJKJwWnRwI-9" value="" style="endArrow=none;html=1;rounded=0;entryX=0;entryY=0.5;entryDx=0;entryDy=0;" edge="1" parent="1" target="Nfgtw0JPdmUJKJwWnRwI-14">
          <mxGeometry width="50" height="50" relative="1" as="geometry">
            <mxPoint x="260" y="40" as="sourcePoint" />
            <mxPoint x="320" y="40" as="targetPoint" />
          </mxGeometry>
        </mxCell>
        <mxCell id="Nfgtw0JPdmUJKJwWnRwI-10" value="" style="endArrow=none;html=1;rounded=0;targetPerimeterSpacing=1;" edge="1" parent="1">
          <mxGeometry width="50" height="50" relative="1" as="geometry">
            <mxPoint x="80" y="40" as="sourcePoint" />
            <mxPoint x="140" y="40" as="targetPoint" />
          </mxGeometry>
        </mxCell>
        <mxCell id="Nfgtw0JPdmUJKJwWnRwI-11" value="" style="endArrow=none;html=1;rounded=0;" edge="1" parent="1">
          <mxGeometry width="50" height="50" relative="1" as="geometry">
            <mxPoint x="80" y="-30" as="sourcePoint" />
            <mxPoint x="140" y="10" as="targetPoint" />
          </mxGeometry>
        </mxCell>
        <mxCell id="Nfgtw0JPdmUJKJwWnRwI-12" value="Home-Address" style="ellipse;whiteSpace=wrap;html=1;" vertex="1" parent="1">
          <mxGeometry x="140" y="-130" width="120" height="80" as="geometry" />
        </mxCell>
        <mxCell id="Nfgtw0JPdmUJKJwWnRwI-14" value="Email-Address" style="ellipse;whiteSpace=wrap;html=1;" vertex="1" parent="1">
          <mxGeometry x="310" y="-20" width="120" height="80" as="geometry" />
        </mxCell>
        <mxCell id="Nfgtw0JPdmUJKJwWnRwI-15" value="Password" style="ellipse;whiteSpace=wrap;html=1;" vertex="1" parent="1">
          <mxGeometry x="290" y="-110" width="120" height="80" as="geometry" />
        </mxCell>
        <mxCell id="Nfgtw0JPdmUJKJwWnRwI-16" value="Name" style="ellipse;whiteSpace=wrap;html=1;" vertex="1" parent="1">
          <mxGeometry x="320" y="60" width="120" height="80" as="geometry" />
        </mxCell>
        <mxCell id="Nfgtw0JPdmUJKJwWnRwI-18" value="Phone-Number" style="ellipse;whiteSpace=wrap;html=1;" vertex="1" parent="1">
          <mxGeometry y="-110" width="120" height="80" as="geometry" />
        </mxCell>
        <mxCell id="Nfgtw0JPdmUJKJwWnRwI-19" value="&lt;u&gt;Member-Numbe&lt;/u&gt;r" style="ellipse;whiteSpace=wrap;html=1;" vertex="1" parent="1">
          <mxGeometry x="-40" width="120" height="80" as="geometry" />
        </mxCell>
        <mxCell id="Nfgtw0JPdmUJKJwWnRwI-21" value="" style="endArrow=none;html=1;rounded=0;shape=link;" edge="1" parent="1">
          <mxGeometry width="50" height="50" relative="1" as="geometry">
            <mxPoint x="200" y="150" as="sourcePoint" />
            <mxPoint x="200" y="70" as="targetPoint" />
          </mxGeometry>
        </mxCell>
        <mxCell id="Nfgtw0JPdmUJKJwWnRwI-23" value="" style="ellipse;whiteSpace=wrap;html=1;aspect=fixed;" vertex="1" parent="1">
          <mxGeometry x="175" y="150" width="50" height="50" as="geometry" />
        </mxCell>
        <mxCell id="Nfgtw0JPdmUJKJwWnRwI-24" value="" style="ellipse;whiteSpace=wrap;html=1;aspect=fixed;" vertex="1" parent="1">
          <mxGeometry x="190" y="165" width="20" height="20" as="geometry" />
        </mxCell>
        <mxCell id="Nfgtw0JPdmUJKJwWnRwI-25" value="" style="endArrow=none;html=1;rounded=0;" edge="1" parent="1" source="Nfgtw0JPdmUJKJwWnRwI-30">
          <mxGeometry width="50" height="50" relative="1" as="geometry">
            <mxPoint x="130" y="240" as="sourcePoint" />
            <mxPoint x="180" y="190" as="targetPoint" />
          </mxGeometry>
        </mxCell>
        <mxCell id="Nfgtw0JPdmUJKJwWnRwI-26" value="" style="endArrow=none;html=1;rounded=0;" edge="1" parent="1" source="Nfgtw0JPdmUJKJwWnRwI-32">
          <mxGeometry width="50" height="50" relative="1" as="geometry">
            <mxPoint x="260" y="240" as="sourcePoint" />
            <mxPoint x="220" y="190" as="targetPoint" />
          </mxGeometry>
        </mxCell>
        <mxCell id="Nfgtw0JPdmUJKJwWnRwI-28" value="Buyer" style="rounded=0;whiteSpace=wrap;html=1;" vertex="1" parent="1">
          <mxGeometry x="70" y="240" width="120" height="60" as="geometry" />
        </mxCell>
        <mxCell id="Nfgtw0JPdmUJKJwWnRwI-29" value="Seller" style="rounded=0;whiteSpace=wrap;html=1;" vertex="1" parent="1">
          <mxGeometry x="230" y="240" width="120" height="60" as="geometry" />
        </mxCell>
        <mxCell id="Nfgtw0JPdmUJKJwWnRwI-31" value="" style="endArrow=none;html=1;rounded=0;" edge="1" parent="1" target="Nfgtw0JPdmUJKJwWnRwI-30">
          <mxGeometry width="50" height="50" relative="1" as="geometry">
            <mxPoint x="130" y="240" as="sourcePoint" />
            <mxPoint x="180" y="190" as="targetPoint" />
          </mxGeometry>
        </mxCell>
        <mxCell id="Nfgtw0JPdmUJKJwWnRwI-30" value="" style="shape=requiredInterface;html=1;verticalLabelPosition=bottom;sketch=0;rotation=125;" vertex="1" parent="1">
          <mxGeometry x="150" y="200" width="10" height="20" as="geometry" />
        </mxCell>
        <mxCell id="Nfgtw0JPdmUJKJwWnRwI-33" value="" style="endArrow=none;html=1;rounded=0;" edge="1" parent="1" target="Nfgtw0JPdmUJKJwWnRwI-32">
          <mxGeometry width="50" height="50" relative="1" as="geometry">
            <mxPoint x="260" y="240" as="sourcePoint" />
            <mxPoint x="220" y="190" as="targetPoint" />
          </mxGeometry>
        </mxCell>
        <mxCell id="Nfgtw0JPdmUJKJwWnRwI-32" value="" style="shape=requiredInterface;html=1;verticalLabelPosition=bottom;sketch=0;rotation=45;" vertex="1" parent="1">
          <mxGeometry x="230" y="200" width="10" height="20" as="geometry" />
        </mxCell>
        <mxCell id="Nfgtw0JPdmUJKJwWnRwI-34" value="" style="endArrow=none;html=1;rounded=0;" edge="1" parent="1">
          <mxGeometry width="50" height="50" relative="1" as="geometry">
            <mxPoint x="50" y="350" as="sourcePoint" />
            <mxPoint x="100" y="300" as="targetPoint" />
          </mxGeometry>
        </mxCell>
        <mxCell id="Nfgtw0JPdmUJKJwWnRwI-36" value="Shipping-Address" style="ellipse;whiteSpace=wrap;html=1;" vertex="1" parent="1">
          <mxGeometry x="-10" y="350" width="110" height="60" as="geometry" />
        </mxCell>
        <mxCell id="Nfgtw0JPdmUJKJwWnRwI-37" value="" style="endArrow=none;html=1;rounded=0;exitX=1;exitY=0.5;exitDx=0;exitDy=0;" edge="1" parent="1" source="Nfgtw0JPdmUJKJwWnRwI-42">
          <mxGeometry width="50" height="50" relative="1" as="geometry">
            <mxPoint x="200" y="360" as="sourcePoint" />
            <mxPoint x="240" y="300" as="targetPoint" />
          </mxGeometry>
        </mxCell>
        <mxCell id="Nfgtw0JPdmUJKJwWnRwI-38" value="" style="endArrow=none;html=1;rounded=0;" edge="1" parent="1">
          <mxGeometry width="50" height="50" relative="1" as="geometry">
            <mxPoint x="290" y="360" as="sourcePoint" />
            <mxPoint x="290" y="300" as="targetPoint" />
          </mxGeometry>
        </mxCell>
        <mxCell id="Nfgtw0JPdmUJKJwWnRwI-39" value="" style="endArrow=none;html=1;rounded=0;" edge="1" parent="1" target="Nfgtw0JPdmUJKJwWnRwI-40">
          <mxGeometry width="50" height="50" relative="1" as="geometry">
            <mxPoint x="350" y="300" as="sourcePoint" />
            <mxPoint x="410" y="350" as="targetPoint" />
          </mxGeometry>
        </mxCell>
        <mxCell id="Nfgtw0JPdmUJKJwWnRwI-40" value="Routing-Nmuber" style="ellipse;whiteSpace=wrap;html=1;" vertex="1" parent="1">
          <mxGeometry x="350" y="330" width="110" height="70" as="geometry" />
        </mxCell>
        <mxCell id="Nfgtw0JPdmUJKJwWnRwI-41" value="Bank-Account-Number" style="ellipse;whiteSpace=wrap;html=1;" vertex="1" parent="1">
          <mxGeometry x="230" y="360" width="120" height="70" as="geometry" />
        </mxCell>
        <mxCell id="Nfgtw0JPdmUJKJwWnRwI-42" value="Sell" style="rhombus;whiteSpace=wrap;html=1;rotation=-45;" vertex="1" parent="1">
          <mxGeometry x="130" y="360" width="80" height="50" as="geometry" />
        </mxCell>
        <mxCell id="Nfgtw0JPdmUJKJwWnRwI-43" value="" style="endArrow=none;html=1;rounded=0;entryX=0;entryY=0.5;entryDx=0;entryDy=0;" edge="1" parent="1" source="Nfgtw0JPdmUJKJwWnRwI-120" target="Nfgtw0JPdmUJKJwWnRwI-42">
          <mxGeometry width="50" height="50" relative="1" as="geometry">
            <mxPoint x="110" y="480" as="sourcePoint" />
            <mxPoint x="175" y="420" as="targetPoint" />
          </mxGeometry>
        </mxCell>
        <mxCell id="Nfgtw0JPdmUJKJwWnRwI-44" value="Items" style="rounded=0;whiteSpace=wrap;html=1;" vertex="1" parent="1">
          <mxGeometry x="55" y="480" width="120" height="60" as="geometry" />
        </mxCell>
        <mxCell id="Nfgtw0JPdmUJKJwWnRwI-45" value="" style="endArrow=none;html=1;rounded=0;" edge="1" parent="1">
          <mxGeometry width="50" height="50" relative="1" as="geometry">
            <mxPoint x="175" y="520" as="sourcePoint" />
            <mxPoint x="220" y="480" as="targetPoint" />
          </mxGeometry>
        </mxCell>
        <mxCell id="Nfgtw0JPdmUJKJwWnRwI-47" value="End-Date-of-Auction" style="ellipse;whiteSpace=wrap;html=1;" vertex="1" parent="1">
          <mxGeometry x="190" y="430" width="90" height="50" as="geometry" />
        </mxCell>
        <mxCell id="Nfgtw0JPdmUJKJwWnRwI-49" value="" style="endArrow=none;html=1;rounded=0;" edge="1" parent="1">
          <mxGeometry width="50" height="50" relative="1" as="geometry">
            <mxPoint x="175" y="520" as="sourcePoint" />
            <mxPoint x="240" y="520" as="targetPoint" />
          </mxGeometry>
        </mxCell>
        <mxCell id="Nfgtw0JPdmUJKJwWnRwI-50" value="" style="endArrow=none;html=1;rounded=0;" edge="1" parent="1">
          <mxGeometry width="50" height="50" relative="1" as="geometry">
            <mxPoint x="175" y="540" as="sourcePoint" />
            <mxPoint x="230" y="570" as="targetPoint" />
          </mxGeometry>
        </mxCell>
        <mxCell id="Nfgtw0JPdmUJKJwWnRwI-51" value="Start-Date-of-Auction" style="ellipse;whiteSpace=wrap;html=1;rotation=90;" vertex="1" parent="1">
          <mxGeometry x="225" y="480" width="70" height="60" as="geometry" />
        </mxCell>
        <mxCell id="Nfgtw0JPdmUJKJwWnRwI-52" value="Description&amp;nbsp;" style="ellipse;whiteSpace=wrap;html=1;rotation=120;" vertex="1" parent="1">
          <mxGeometry x="196.03" y="550" width="77.95" height="60.83" as="geometry" />
        </mxCell>
        <mxCell id="Nfgtw0JPdmUJKJwWnRwI-56" value="" style="endArrow=none;html=1;rounded=0;exitX=0.5;exitY=0;exitDx=0;exitDy=0;" edge="1" parent="1" source="Nfgtw0JPdmUJKJwWnRwI-62">
          <mxGeometry width="50" height="50" relative="1" as="geometry">
            <mxPoint x="-10" y="550" as="sourcePoint" />
            <mxPoint x="55" y="520" as="targetPoint" />
          </mxGeometry>
        </mxCell>
        <mxCell id="Nfgtw0JPdmUJKJwWnRwI-57" value="" style="endArrow=none;html=1;rounded=0;" edge="1" parent="1" source="Nfgtw0JPdmUJKJwWnRwI-64">
          <mxGeometry width="50" height="50" relative="1" as="geometry">
            <mxPoint x="-30" y="510" as="sourcePoint" />
            <mxPoint x="50" y="500" as="targetPoint" />
          </mxGeometry>
        </mxCell>
        <mxCell id="Nfgtw0JPdmUJKJwWnRwI-59" value="" style="endArrow=none;html=1;rounded=0;" edge="1" parent="1" source="Nfgtw0JPdmUJKJwWnRwI-55">
          <mxGeometry width="50" height="50" relative="1" as="geometry">
            <mxPoint x="30" y="580" as="sourcePoint" />
            <mxPoint x="70" y="540" as="targetPoint" />
          </mxGeometry>
        </mxCell>
        <mxCell id="Nfgtw0JPdmUJKJwWnRwI-60" value="&lt;u&gt;Name&lt;/u&gt;" style="ellipse;whiteSpace=wrap;html=1;rotation=90;" vertex="1" parent="1">
          <mxGeometry x="-64.66" y="844.67" width="80.67" height="60" as="geometry" />
        </mxCell>
        <mxCell id="Nfgtw0JPdmUJKJwWnRwI-61" value="&#xa;&lt;u style=&quot;border-color: var(--border-color); color: rgb(0, 0, 0); font-family: Helvetica; font-size: 12px; font-style: normal; font-variant-ligatures: normal; font-variant-caps: normal; font-weight: 400; letter-spacing: normal; orphans: 2; text-align: center; text-indent: 0px; text-transform: none; widows: 2; word-spacing: 0px; -webkit-text-stroke-width: 0px;&quot;&gt;Item-Number&lt;/u&gt;&#xa;&#xa;" style="ellipse;whiteSpace=wrap;html=1;rotation=-30;" vertex="1" parent="1">
          <mxGeometry x="-60" y="410" width="90" height="50" as="geometry" />
        </mxCell>
        <mxCell id="Nfgtw0JPdmUJKJwWnRwI-62" value="Starting-Bid-Price" style="ellipse;whiteSpace=wrap;html=1;rotation=30;" vertex="1" parent="1">
          <mxGeometry x="-50" y="560" width="80" height="50" as="geometry" />
        </mxCell>
        <mxCell id="Nfgtw0JPdmUJKJwWnRwI-65" value="" style="endArrow=none;html=1;rounded=0;" edge="1" parent="1">
          <mxGeometry width="50" height="50" relative="1" as="geometry">
            <mxPoint y="460" as="sourcePoint" />
            <mxPoint x="55" y="480" as="targetPoint" />
          </mxGeometry>
        </mxCell>
        <mxCell id="Nfgtw0JPdmUJKJwWnRwI-66" value="" style="endArrow=none;html=1;rounded=0;" edge="1" parent="1">
          <mxGeometry width="50" height="50" relative="1" as="geometry">
            <mxPoint x="120" y="690" as="sourcePoint" />
            <mxPoint x="120" y="540" as="targetPoint" />
          </mxGeometry>
        </mxCell>
        <mxCell id="Nfgtw0JPdmUJKJwWnRwI-69" value="Category" style="rounded=0;whiteSpace=wrap;html=1;" vertex="1" parent="1">
          <mxGeometry x="58.879999999999974" y="840" width="120" height="60" as="geometry" />
        </mxCell>
        <mxCell id="Nfgtw0JPdmUJKJwWnRwI-71" value="Categorize" style="rhombus;whiteSpace=wrap;html=1;rotation=-90;" vertex="1" parent="1">
          <mxGeometry x="79.06" y="696.1" width="82.24" height="62.6" as="geometry" />
        </mxCell>
        <mxCell id="Nfgtw0JPdmUJKJwWnRwI-72" value="" style="endArrow=none;html=1;rounded=0;" edge="1" parent="1">
          <mxGeometry width="50" height="50" relative="1" as="geometry">
            <mxPoint x="120" y="840" as="sourcePoint" />
            <mxPoint x="120" y="770" as="targetPoint" />
          </mxGeometry>
        </mxCell>
        <mxCell id="Nfgtw0JPdmUJKJwWnRwI-73" value="" style="endArrow=none;html=1;rounded=0;entryX=0;entryY=0.5;entryDx=0;entryDy=0;" edge="1" parent="1" target="Nfgtw0JPdmUJKJwWnRwI-69">
          <mxGeometry width="50" height="50" relative="1" as="geometry">
            <mxPoint x="5" y="870" as="sourcePoint" />
            <mxPoint x="55" y="820" as="targetPoint" />
          </mxGeometry>
        </mxCell>
        <mxCell id="Nfgtw0JPdmUJKJwWnRwI-74" value="Categorizing-Relation" style="rhombus;whiteSpace=wrap;html=1;" vertex="1" parent="1">
          <mxGeometry x="75" y="1030" width="80" height="60" as="geometry" />
        </mxCell>
        <mxCell id="Nfgtw0JPdmUJKJwWnRwI-75" value="" style="endArrow=none;html=1;rounded=0;exitX=0;exitY=0.5;exitDx=0;exitDy=0;" edge="1" parent="1" source="Nfgtw0JPdmUJKJwWnRwI-74">
          <mxGeometry width="50" height="50" relative="1" as="geometry">
            <mxPoint x="40" y="950" as="sourcePoint" />
            <mxPoint x="75" y="900" as="targetPoint" />
          </mxGeometry>
        </mxCell>
        <mxCell id="Nfgtw0JPdmUJKJwWnRwI-76" value="" style="endArrow=none;html=1;rounded=0;entryX=0.813;entryY=0.99;entryDx=0;entryDy=0;entryPerimeter=0;" edge="1" parent="1" target="Nfgtw0JPdmUJKJwWnRwI-69">
          <mxGeometry width="50" height="50" relative="1" as="geometry">
            <mxPoint x="155" y="1060" as="sourcePoint" />
            <mxPoint x="205" y="1010" as="targetPoint" />
          </mxGeometry>
        </mxCell>
        <mxCell id="Nfgtw0JPdmUJKJwWnRwI-101" value="Making-Transaction" style="rhombus;whiteSpace=wrap;html=1;rotation=-75;" vertex="1" parent="1">
          <mxGeometry x="-1020" y="350" width="80" height="80" as="geometry" />
        </mxCell>
        <mxCell id="Nfgtw0JPdmUJKJwWnRwI-102" value="" style="endArrow=none;html=1;rounded=0;entryX=1;entryY=0.5;entryDx=0;entryDy=0;" edge="1" parent="1" target="Nfgtw0JPdmUJKJwWnRwI-101">
          <mxGeometry width="50" height="50" relative="1" as="geometry">
            <mxPoint x="140" y="70" as="sourcePoint" />
            <mxPoint x="280" y="730" as="targetPoint" />
          </mxGeometry>
        </mxCell>
        <mxCell id="Nfgtw0JPdmUJKJwWnRwI-104" value="" style="endArrow=none;html=1;rounded=0;" edge="1" parent="1">
          <mxGeometry width="50" height="50" relative="1" as="geometry">
            <mxPoint x="-1100" y="390" as="sourcePoint" />
            <mxPoint x="-1020.0000000000001" y="390" as="targetPoint" />
          </mxGeometry>
        </mxCell>
        <mxCell id="Nfgtw0JPdmUJKJwWnRwI-106" value="FeedBack" style="ellipse;whiteSpace=wrap;html=1;rotation=90;" vertex="1" parent="1">
          <mxGeometry x="-1180" y="380" width="90" height="50" as="geometry" />
        </mxCell>
        <mxCell id="Nfgtw0JPdmUJKJwWnRwI-107" value="" style="endArrow=none;html=1;rounded=0;exitX=0;exitY=1;exitDx=0;exitDy=0;" edge="1" parent="1" source="Nfgtw0JPdmUJKJwWnRwI-106">
          <mxGeometry width="50" height="50" relative="1" as="geometry">
            <mxPoint x="-1320" y="449.17" as="sourcePoint" />
            <mxPoint x="-1270" y="360" as="targetPoint" />
            <Array as="points" />
          </mxGeometry>
        </mxCell>
        <mxCell id="Nfgtw0JPdmUJKJwWnRwI-108" value="" style="endArrow=none;html=1;rounded=0;exitX=1;exitY=1;exitDx=0;exitDy=0;" edge="1" parent="1" source="Nfgtw0JPdmUJKJwWnRwI-106">
          <mxGeometry width="50" height="50" relative="1" as="geometry">
            <mxPoint x="-1200" y="449.17" as="sourcePoint" />
            <mxPoint x="-1250" y="500" as="targetPoint" />
          </mxGeometry>
        </mxCell>
        <mxCell id="Nfgtw0JPdmUJKJwWnRwI-110" value="Comment-Text" style="ellipse;whiteSpace=wrap;html=1;direction=south;rotation=90;" vertex="1" parent="1">
          <mxGeometry x="-1338.1" y="486.4" width="99.1" height="68" as="geometry" />
        </mxCell>
        <mxCell id="Nfgtw0JPdmUJKJwWnRwI-118" value="1" style="text;align=center;fontStyle=1;verticalAlign=middle;spacingLeft=3;spacingRight=3;strokeColor=none;rotatable=0;points=[[0,0.5],[1,0.5]];portConstraint=eastwest;html=1;" vertex="1" parent="1">
          <mxGeometry x="160" y="330" width="40" height="30" as="geometry" />
        </mxCell>
        <mxCell id="Nfgtw0JPdmUJKJwWnRwI-124" value="" style="endArrow=none;html=1;rounded=0;entryX=0.846;entryY=1.236;entryDx=0;entryDy=0;entryPerimeter=0;" edge="1" parent="1" target="Nfgtw0JPdmUJKJwWnRwI-120">
          <mxGeometry width="50" height="50" relative="1" as="geometry">
            <mxPoint x="110" y="480" as="sourcePoint" />
            <mxPoint x="142" y="413" as="targetPoint" />
          </mxGeometry>
        </mxCell>
        <mxCell id="Nfgtw0JPdmUJKJwWnRwI-120" value="M" style="text;align=center;fontStyle=1;verticalAlign=middle;spacingLeft=3;spacingRight=3;strokeColor=none;rotatable=0;points=[[0,0.5],[1,0.5]];portConstraint=eastwest;html=1;" vertex="1" parent="1">
          <mxGeometry x="120" y="384" width="25" height="26" as="geometry" />
        </mxCell>
        <mxCell id="Nfgtw0JPdmUJKJwWnRwI-126" value="1" style="text;align=center;fontStyle=1;verticalAlign=middle;spacingLeft=3;spacingRight=3;strokeColor=none;rotatable=0;points=[[0,0.5],[1,0.5]];portConstraint=eastwest;html=1;" vertex="1" parent="1">
          <mxGeometry x="95" y="670" width="20" height="26" as="geometry" />
        </mxCell>
        <mxCell id="Nfgtw0JPdmUJKJwWnRwI-127" value="M" style="text;align=center;fontStyle=1;verticalAlign=middle;spacingLeft=3;spacingRight=3;strokeColor=none;rotatable=0;points=[[0,0.5],[1,0.5]];portConstraint=eastwest;html=1;" vertex="1" parent="1">
          <mxGeometry x="85" y="760" width="30" height="26" as="geometry" />
        </mxCell>
        <mxCell id="Nfgtw0JPdmUJKJwWnRwI-134" value="1" style="text;align=center;fontStyle=1;verticalAlign=middle;spacingLeft=3;spacingRight=3;strokeColor=none;rotatable=0;points=[[0,0.5],[1,0.5]];portConstraint=eastwest;html=1;" vertex="1" parent="1">
          <mxGeometry x="-1023.2" y="405" width="20" height="26" as="geometry" />
        </mxCell>
        <mxCell id="Nfgtw0JPdmUJKJwWnRwI-135" value="M" style="text;align=center;fontStyle=1;verticalAlign=middle;spacingLeft=3;spacingRight=3;strokeColor=none;rotatable=0;points=[[0,0.5],[1,0.5]];portConstraint=eastwest;html=1;" vertex="1" parent="1">
          <mxGeometry x="-970" y="320" width="20" height="26" as="geometry" />
        </mxCell>
        <mxCell id="Nfgtw0JPdmUJKJwWnRwI-160" value="Won-Transactions" style="rounded=0;whiteSpace=wrap;html=1;" vertex="1" parent="1">
          <mxGeometry x="-476.4" y="640" width="120" height="60" as="geometry" />
        </mxCell>
        <mxCell id="Nfgtw0JPdmUJKJwWnRwI-161" value="" style="verticalLabelPosition=bottom;verticalAlign=top;html=1;shape=mxgraph.basic.frame;dx=10;whiteSpace=wrap;" vertex="1" parent="1">
          <mxGeometry x="-476.39999999999986" y="540" width="100" height="60" as="geometry" />
        </mxCell>
        <mxCell id="Nfgtw0JPdmUJKJwWnRwI-162" value="" style="endArrow=none;html=1;rounded=0;" edge="1" parent="1">
          <mxGeometry width="50" height="50" relative="1" as="geometry">
            <mxPoint x="-376.4" y="540" as="sourcePoint" />
            <mxPoint x="-326.4" y="500" as="targetPoint" />
          </mxGeometry>
        </mxCell>
        <mxCell id="Nfgtw0JPdmUJKJwWnRwI-163" value="" style="endArrow=none;html=1;rounded=0;" edge="1" parent="1">
          <mxGeometry width="50" height="50" relative="1" as="geometry">
            <mxPoint x="-476.39999999999986" y="540" as="sourcePoint" />
            <mxPoint x="-526.3999999999999" y="500" as="targetPoint" />
          </mxGeometry>
        </mxCell>
        <mxCell id="Nfgtw0JPdmUJKJwWnRwI-164" value="" style="rhombus;whiteSpace=wrap;html=1;rotation=-30;" vertex="1" parent="1">
          <mxGeometry x="-346.9999999999999" y="439.16999999999996" width="90.14" height="73.02" as="geometry" />
        </mxCell>
        <mxCell id="Nfgtw0JPdmUJKJwWnRwI-165" value="" style="rhombus;whiteSpace=wrap;html=1;rotation=-45;" vertex="1" parent="1">
          <mxGeometry x="-593.1999999999998" y="440.24" width="85.93" height="68.47" as="geometry" />
        </mxCell>
        <mxCell id="Nfgtw0JPdmUJKJwWnRwI-166" value="Bidding-for-Items" style="rhombus;whiteSpace=wrap;html=1;rotation=-30;" vertex="1" parent="1">
          <mxGeometry x="-335.54999999999984" y="452.70000000000005" width="62.93" height="48.47" as="geometry" />
        </mxCell>
        <mxCell id="Nfgtw0JPdmUJKJwWnRwI-167" value="Make-Bids" style="rhombus;whiteSpace=wrap;html=1;rotation=-45;" vertex="1" parent="1">
          <mxGeometry x="-580.2399999999999" y="454.47" width="60" height="40" as="geometry" />
        </mxCell>
        <mxCell id="Nfgtw0JPdmUJKJwWnRwI-168" value="" style="endArrow=none;html=1;rounded=0;exitX=0;exitY=0.25;exitDx=0;exitDy=0;" edge="1" parent="1" source="Nfgtw0JPdmUJKJwWnRwI-28">
          <mxGeometry width="50" height="50" relative="1" as="geometry">
            <mxPoint x="-636.3999999999999" y="420" as="sourcePoint" />
            <mxPoint x="-576.3999999999999" y="449.53" as="targetPoint" />
          </mxGeometry>
        </mxCell>
        <mxCell id="Nfgtw0JPdmUJKJwWnRwI-169" value="" style="endArrow=none;html=1;rounded=0;" edge="1" parent="1">
          <mxGeometry width="50" height="50" relative="1" as="geometry">
            <mxPoint x="-266.4" y="455.66999999999996" as="sourcePoint" />
            <mxPoint x="40" y="480" as="targetPoint" />
          </mxGeometry>
        </mxCell>
        <mxCell id="Nfgtw0JPdmUJKJwWnRwI-170" value="" style="endArrow=none;html=1;rounded=0;" edge="1" parent="1" source="Nfgtw0JPdmUJKJwWnRwI-178">
          <mxGeometry width="50" height="50" relative="1" as="geometry">
            <mxPoint x="-416.4" y="640" as="sourcePoint" />
            <mxPoint x="-416.4" y="590" as="targetPoint" />
          </mxGeometry>
        </mxCell>
        <mxCell id="Nfgtw0JPdmUJKJwWnRwI-173" value="" style="endArrow=none;html=1;rounded=0;" edge="1" parent="1" target="Nfgtw0JPdmUJKJwWnRwI-174">
          <mxGeometry width="50" height="50" relative="1" as="geometry">
            <mxPoint x="-376.4" y="560" as="sourcePoint" />
            <mxPoint x="-316.4" y="560" as="targetPoint" />
          </mxGeometry>
        </mxCell>
        <mxCell id="Nfgtw0JPdmUJKJwWnRwI-174" value="Time" style="ellipse;whiteSpace=wrap;html=1;" vertex="1" parent="1">
          <mxGeometry x="-316.4" y="530" width="50" height="60" as="geometry" />
        </mxCell>
        <mxCell id="Nfgtw0JPdmUJKJwWnRwI-175" value="" style="endArrow=none;html=1;rounded=0;" edge="1" parent="1">
          <mxGeometry width="50" height="50" relative="1" as="geometry">
            <mxPoint x="-296.4" y="630" as="sourcePoint" />
            <mxPoint x="-376.4" y="600" as="targetPoint" />
          </mxGeometry>
        </mxCell>
        <mxCell id="Nfgtw0JPdmUJKJwWnRwI-176" value="Price" style="ellipse;whiteSpace=wrap;html=1;direction=west;rotation=90;" vertex="1" parent="1">
          <mxGeometry x="-316.4" y="610" width="80" height="60" as="geometry" />
        </mxCell>
        <mxCell id="Nfgtw0JPdmUJKJwWnRwI-177" value="" style="endArrow=none;html=1;rounded=0;" edge="1" parent="1" target="Nfgtw0JPdmUJKJwWnRwI-178">
          <mxGeometry width="50" height="50" relative="1" as="geometry">
            <mxPoint x="-416.4" y="640" as="sourcePoint" />
            <mxPoint x="-416.4" y="590" as="targetPoint" />
          </mxGeometry>
        </mxCell>
        <mxCell id="Nfgtw0JPdmUJKJwWnRwI-178" value="" style="shape=requiredInterface;html=1;verticalLabelPosition=bottom;sketch=0;rotation=92;" vertex="1" parent="1">
          <mxGeometry x="-421.4" y="610" width="10" height="20" as="geometry" />
        </mxCell>
        <mxCell id="Nfgtw0JPdmUJKJwWnRwI-179" value="Bids" style="text;html=1;align=center;verticalAlign=middle;resizable=0;points=[];autosize=1;strokeColor=none;fillColor=none;" vertex="1" parent="1">
          <mxGeometry x="-451.4" y="548" width="50" height="30" as="geometry" />
        </mxCell>
        <mxCell id="Nfgtw0JPdmUJKJwWnRwI-180" value="1" style="text;align=center;fontStyle=1;verticalAlign=middle;spacingLeft=3;spacingRight=3;strokeColor=none;rotatable=0;points=[[0,0.5],[1,0.5]];portConstraint=eastwest;html=1;" vertex="1" parent="1">
          <mxGeometry x="-286.86" y="420" width="30" height="26" as="geometry" />
        </mxCell>
        <mxCell id="Nfgtw0JPdmUJKJwWnRwI-181" value="M" style="text;align=center;fontStyle=1;verticalAlign=middle;spacingLeft=3;spacingRight=3;strokeColor=none;rotatable=0;points=[[0,0.5],[1,0.5]];portConstraint=eastwest;html=1;" vertex="1" parent="1">
          <mxGeometry x="-365.54999999999984" y="486.19000000000005" width="30" height="26" as="geometry" />
        </mxCell>
        <mxCell id="Nfgtw0JPdmUJKJwWnRwI-182" value="M" style="text;align=center;fontStyle=1;verticalAlign=middle;spacingLeft=3;spacingRight=3;strokeColor=none;rotatable=0;points=[[0,0.5],[1,0.5]];portConstraint=eastwest;html=1;" vertex="1" parent="1">
          <mxGeometry x="-556.3999999999999" y="501.1700000000001" width="30" height="26" as="geometry" />
        </mxCell>
        <mxCell id="Nfgtw0JPdmUJKJwWnRwI-183" value="N" style="text;align=center;fontStyle=1;verticalAlign=middle;spacingLeft=3;spacingRight=3;strokeColor=none;rotatable=0;points=[[0,0.5],[1,0.5]];portConstraint=eastwest;html=1;" vertex="1" parent="1">
          <mxGeometry x="-610.2399999999999" y="446" width="30" height="26" as="geometry" />
        </mxCell>
        <mxCell id="Nfgtw0JPdmUJKJwWnRwI-109" value="Rating" style="ellipse;whiteSpace=wrap;html=1;rotation=90;" vertex="1" parent="1">
          <mxGeometry x="-1352.5" y="307.5" width="95" height="80" as="geometry" />
        </mxCell>
        <mxCell id="Nfgtw0JPdmUJKJwWnRwI-191" value="" style="endArrow=none;html=1;rounded=0;" edge="1" parent="1">
          <mxGeometry width="50" height="50" relative="1" as="geometry">
            <mxPoint x="-480" y="670" as="sourcePoint" />
            <mxPoint x="-988.2" y="430" as="targetPoint" />
          </mxGeometry>
        </mxCell>
        <mxCell id="Nfgtw0JPdmUJKJwWnRwI-192" value="" style="endArrow=none;html=1;rounded=0;" edge="1" parent="1" target="Nfgtw0JPdmUJKJwWnRwI-55">
          <mxGeometry width="50" height="50" relative="1" as="geometry">
            <mxPoint x="30" y="580" as="sourcePoint" />
            <mxPoint x="70" y="540" as="targetPoint" />
          </mxGeometry>
        </mxCell>
        <mxCell id="Nfgtw0JPdmUJKJwWnRwI-55" value="Title" style="ellipse;whiteSpace=wrap;html=1;" vertex="1" parent="1">
          <mxGeometry x="16.01" y="580" width="90" height="50" as="geometry" />
        </mxCell>
        <mxCell id="Nfgtw0JPdmUJKJwWnRwI-193" value="" style="endArrow=none;html=1;rounded=0;" edge="1" parent="1" target="Nfgtw0JPdmUJKJwWnRwI-64">
          <mxGeometry width="50" height="50" relative="1" as="geometry">
            <mxPoint x="-30" y="510" as="sourcePoint" />
            <mxPoint x="50" y="500" as="targetPoint" />
          </mxGeometry>
        </mxCell>
        <mxCell id="Nfgtw0JPdmUJKJwWnRwI-64" value="Bidding-Increment" style="ellipse;whiteSpace=wrap;html=1;rotation=80;" vertex="1" parent="1">
          <mxGeometry x="-85" y="489.34" width="85" height="58.66" as="geometry" />
        </mxCell>
      </root>
    </mxGraphModel>
  </diagram>
</mxfile>
